<svg width="48" height="48" viewBox="0 0 48 48" fill="none" xmlns="http://www.w3.org/2000/svg">
<rect width="18" height="18" rx="9" transform="matrix(-1 0 0 1 48 24)" fill="#B3A2F1"/>
<circle cx="11" cy="30" r="6" fill="#A5EEEF"/>
<circle cx="13" cy="10" r="6" fill="#F9B7D7"/>
<path d="M39.273 36.8595L30.8903 35.2627L30.1305 35.262C34.1468 33.2032 37.0035 29.1997 37.437 24.4957C39.762 23.3812 41.25 21.069 41.25 18.4605V17.5695C41.25 16.1535 40.0973 15 38.6798 15C38.283 15 37.8848 15.0937 37.53 15.2715L37.5 15.2865V14.25H10.5V15.2865L10.47 15.2715C10.1145 15.0937 9.717 15 9.32025 15C7.90275 15 6.75 16.1535 6.75 17.5703V18.4612C6.75 21.0697 8.23875 23.3812 10.563 24.4965C10.995 29.1907 13.8412 33.189 17.8447 35.2507L17.25 35.25L8.727 36.8595C4.1055 37.74 0.75 41.7945 0.75 46.5V47.25H47.25V46.5C47.25 41.7945 43.8945 37.74 39.273 36.8595ZM38.2013 16.6132C38.349 16.539 38.5148 16.5 38.6798 16.5C39.27 16.5 39.75 16.98 39.75 17.5703V18.4612C39.75 20.2057 38.889 21.7778 37.5 22.737V16.9642L38.2013 16.6132ZM8.25 18.4612V17.5703C8.25 16.98 8.73 16.5 9.32025 16.5C9.486 16.5 9.651 16.539 9.7995 16.6132L10.5 16.9635V22.7362C9.111 21.7778 8.25 20.2057 8.25 18.4612ZM12 23.25V15.75H36V23.25C36 29.8665 30.6165 35.25 24 35.25C17.3835 35.25 12 29.8665 12 23.25ZM29.3767 36.75L24 45.114L18.6232 36.75H29.3767ZM9.00825 38.3333L16.8937 36.831L22.6268 45.75H2.28375C2.61375 42.0893 5.34 39.0315 9.00825 38.3333ZM25.3733 45.75L31.1062 36.8318L38.9917 38.334C42.66 39.0322 45.3855 42.09 45.7163 45.7507H25.3733V45.75Z" fill="#353241"/>
<path d="M16.1565 12.75C17.5268 12.75 18.8497 12.2527 19.881 11.3505L24 7.74675L28.119 11.3505C29.1502 12.2527 30.4732 12.75 31.8435 12.75C34.962 12.75 37.5 10.2128 37.5 7.0935V6.4065C37.5 3.28725 34.962 0.75 31.8435 0.75C30.4732 0.75 29.1502 1.24725 28.119 2.1495L24 5.75325L19.881 2.1495C18.8497 1.24725 17.5268 0.75 16.1565 0.75C13.038 0.75 10.5 3.28725 10.5 6.4065V7.0935C10.5 10.2128 13.038 12.75 16.1565 12.75ZM29.1067 3.27825C29.8642 2.61525 30.8363 2.25 31.8435 2.25C34.1355 2.25 36 4.1145 36 6.4065V7.0935C36 9.3855 34.1355 11.25 31.8435 11.25C30.8363 11.25 29.8642 10.8847 29.1067 10.2218L25.1393 6.75L29.1067 3.27825ZM12 6.4065C12 4.1145 13.8645 2.25 16.1565 2.25C17.1637 2.25 18.1357 2.61525 18.8932 3.27825L22.8608 6.75L18.8932 10.2218C18.1357 10.8847 17.1637 11.25 16.1565 11.25C13.8645 11.25 12 9.3855 12 7.0935V6.4065Z" fill="#353241"/>
<path d="M8.25 0.75H6.75V2.25H8.25V0.75Z" fill="#353241"/>
<path d="M6.75 2.25H5.25V3.75H6.75V2.25Z" fill="#353241"/>
<path d="M9.75 2.25H8.25V3.75H9.75V2.25Z" fill="#353241"/>
<path d="M8.25 3.75H6.75V5.25H8.25V3.75Z" fill="#353241"/>
<path d="M42 0.75H40.5V2.25H42V0.75Z" fill="#353241"/>
<path d="M40.5 2.25H39V3.75H40.5V2.25Z" fill="#353241"/>
<path d="M43.5 2.25H42V3.75H43.5V2.25Z" fill="#353241"/>
<path d="M42 3.75H40.5V5.25H42V3.75Z" fill="#353241"/>
<path d="M45.75 9H44.25V10.5H45.75V9Z" fill="#353241"/>
<path d="M44.25 10.5H42.75V12H44.25V10.5Z" fill="#353241"/>
<path d="M47.25 10.5H45.75V12H47.25V10.5Z" fill="#353241"/>
<path d="M45.75 12H44.25V13.5H45.75V12Z" fill="#353241"/>
<path d="M5.25 7.5H3.75V9H5.25V7.5Z" fill="#353241"/>
<path d="M3.75 9H2.25V10.5H3.75V9Z" fill="#353241"/>
<path d="M6.75 9H5.25V10.5H6.75V9Z" fill="#353241"/>
<path d="M5.25 10.5H3.75V12H5.25V10.5Z" fill="#353241"/>
<path d="M31.5 9.75C33.1545 9.75 34.5 8.4045 34.5 6.75C34.5 5.0955 33.1545 3.75 31.5 3.75C29.8455 3.75 28.5 5.0955 28.5 6.75C28.5 8.4045 29.8455 9.75 31.5 9.75ZM31.5 5.25C32.3273 5.25 33 5.92275 33 6.75C33 7.57725 32.3273 8.25 31.5 8.25C30.6727 8.25 30 7.57725 30 6.75C30 5.92275 30.6727 5.25 31.5 5.25Z" fill="#353241"/>
<path d="M16.5 9.75C18.1545 9.75 19.5 8.4045 19.5 6.75C19.5 5.0955 18.1545 3.75 16.5 3.75C14.8455 3.75 13.5 5.0955 13.5 6.75C13.5 8.4045 14.8455 9.75 16.5 9.75ZM16.5 5.25C17.3273 5.25 18 5.92275 18 6.75C18 7.57725 17.3273 8.25 16.5 8.25C15.6727 8.25 15 7.57725 15 6.75C15 5.92275 15.6727 5.25 16.5 5.25Z" fill="#353241"/>
</svg>
