<svg width="48" height="48" viewBox="0 0 48 48" fill="none" xmlns="http://www.w3.org/2000/svg">
<rect x="36" y="14" width="18" height="32" rx="4" transform="rotate(90 36 14)" fill="#FFF3BC"/>
<rect width="17" height="17" rx="8.5" transform="matrix(-1 0 0 1 45 27)" fill="#84F6D6"/>
<path d="M11.153 4.00334C11.0338 4.01828 10.9244 4.07742 10.8467 4.16907C10.7689 4.26072 10.7283 4.3782 10.733 4.49831V7.10831H5.01814C3.37798 7.10831 2.04814 8.43805 2.04814 10.0783V11.7283C2.01646 11.7938 2 11.8656 2 11.9383C2 12.011 2.01646 12.0828 2.04814 12.1483V34.4683C2.04814 35.9601 3.15003 37.1971 4.58312 37.4083C4.79724 38.8364 6.03368 39.9283 7.52312 39.9283H28.5682C30.1003 42.8466 33.148 44.8334 36.6682 44.8334C41.7188 44.8334 45.8185 40.7333 45.8185 35.6837C45.8185 31.2865 42.711 27.6197 38.5734 26.7437V12.0288C38.5847 11.9693 38.5847 11.9082 38.5734 11.8488V10.0788C38.5734 8.43852 37.2435 7.10878 35.6034 7.10878H30.2182V4.49878C30.221 4.42912 30.2085 4.35971 30.1817 4.29537C30.1548 4.23102 30.1143 4.17328 30.0629 4.12618C30.0115 4.07907 29.9505 4.04372 29.8841 4.02258C29.8176 4.00145 29.7474 3.99505 29.6782 4.0038C29.559 4.01875 29.4497 4.07789 29.3719 4.16954C29.2941 4.26119 29.2536 4.37867 29.2582 4.49878V7.10878H11.6931V4.49878C11.6958 4.42912 11.6834 4.35971 11.6565 4.29537C11.6297 4.23102 11.5892 4.17328 11.5378 4.12618C11.4864 4.07907 11.4254 4.04372 11.3589 4.02258C11.2925 4.00145 11.2223 3.99505 11.1531 4.0038L11.153 4.00334ZM5.01814 8.06837H10.733V10.0334C10.7321 10.097 10.7439 10.1601 10.7676 10.2192C10.7913 10.2782 10.8265 10.3319 10.8712 10.3772C10.9158 10.4225 10.9691 10.4585 11.0277 10.483C11.0864 10.5076 11.1494 10.5202 11.213 10.5202C11.2766 10.5202 11.3396 10.5076 11.3983 10.483C11.457 10.4585 11.5102 10.4225 11.5549 10.3772C11.5995 10.3319 11.6347 10.2782 11.6585 10.2192C11.6822 10.1601 11.6939 10.097 11.693 10.0334V8.06837H29.2581V10.0334C29.2572 10.097 29.269 10.1601 29.2927 10.2192C29.3164 10.2782 29.3516 10.3319 29.3963 10.3772C29.441 10.4225 29.4942 10.4585 29.5529 10.483C29.6115 10.5076 29.6745 10.5202 29.7381 10.5202C29.8018 10.5202 29.8647 10.5076 29.9234 10.483C29.9821 10.4585 30.0353 10.4225 30.08 10.3772C30.1246 10.3319 30.1599 10.2782 30.1836 10.2192C30.2073 10.1601 30.219 10.097 30.2181 10.0334V8.06837H35.6033C36.7289 8.06837 37.6133 8.95286 37.6133 10.0784V11.4584H3.00814V10.0784C3.00814 8.95286 3.89249 8.06837 5.01814 8.06837ZM3.00814 12.4184H37.6133V26.5932C37.462 26.5779 37.3016 26.5712 37.1483 26.5635C36.9917 26.5452 36.8301 26.5184 36.6683 26.5184C32.5646 26.5184 29.0823 29.241 27.9231 32.9686C27.8339 33.2549 27.7592 33.541 27.6981 33.8386C27.5743 34.4388 27.5181 35.0473 27.5181 35.6835C27.5181 35.8435 27.5326 36.0059 27.5481 36.1635C27.5537 36.2691 27.554 36.374 27.5631 36.4786H5.0329C5.0279 36.4785 5.0229 36.4785 5.0179 36.4786C3.8923 36.4786 3.0079 35.5941 3.0079 34.4686V12.4184H3.00814ZM7.38814 16.4084V18.6134H12.9533V16.4084H7.38814ZM17.5281 16.4084V18.6134H23.0933V16.4084H17.5281ZM27.6681 16.4084V18.6134H33.2333V16.4084H27.6681ZM7.38814 22.3181V24.5231H12.9533V22.3181H7.38814ZM17.5281 22.3181V24.5231H23.0933V22.3181H17.5281ZM27.6681 22.3181V24.5231H33.2333V22.3181H27.6681ZM36.6681 27.493C36.9514 27.493 37.2324 27.5103 37.5081 27.5381C37.5382 27.5429 37.5682 27.5496 37.5981 27.553C41.6904 28.0124 44.8581 31.4662 44.8581 35.6833C44.8581 40.2143 41.2001 43.8884 36.6684 43.8884C33.436 43.8884 30.6689 42.0119 29.3335 39.2984C29.3244 39.2828 29.3143 39.2677 29.3035 39.2533C29.3015 39.2485 29.3055 39.2422 29.3035 39.2384C28.9831 38.5764 28.7474 37.8759 28.6135 37.1384C28.5982 37.0533 28.5811 36.9693 28.5685 36.8833C28.5597 36.8234 28.5611 36.7638 28.5535 36.7033C28.5392 36.5883 28.518 36.4747 28.5085 36.3584C28.49 36.1382 28.4785 35.9079 28.4785 35.6833C28.4785 35.4001 28.4955 35.119 28.5235 34.8433C28.6077 34.0112 28.8103 33.2281 29.1235 32.4884C29.2271 32.2434 29.3424 32.0154 29.4685 31.7833C29.7184 31.3219 30.0082 30.881 30.3385 30.4784C30.3408 30.4736 30.3362 30.4664 30.3385 30.4635C30.5052 30.2609 30.6934 30.0791 30.8785 29.8935C31.2465 29.5261 31.6461 29.1808 32.0785 28.8885H32.0935C33.4018 28.0068 34.969 27.4935 36.6685 27.4935L36.6681 27.493ZM7.38814 28.228V30.448H12.9533V28.228H7.38814ZM17.5281 28.228V30.448H23.0933V28.228H17.5281ZM41.363 31.423C41.259 31.4419 41.164 31.4946 41.093 31.573L34.4479 38.7279L32.2729 35.9828C32.2336 35.9333 32.185 35.8919 32.1296 35.8612C32.0743 35.8305 32.0135 35.811 31.9507 35.8038C31.8878 35.7967 31.8242 35.8021 31.7634 35.8196C31.7026 35.8371 31.6459 35.8665 31.5965 35.906C31.5471 35.9455 31.506 35.9944 31.4755 36.0499C31.4451 36.1053 31.4259 36.1663 31.419 36.2292C31.4122 36.2921 31.4179 36.3557 31.4357 36.4164C31.4535 36.4771 31.4832 36.5336 31.5229 36.5828L34.0429 39.7628C34.0858 39.8183 34.1403 39.8638 34.2025 39.896C34.2648 39.9282 34.3334 39.9463 34.4035 39.9491C34.4735 39.9519 34.5434 39.9394 34.608 39.9124C34.6727 39.8853 34.7307 39.8445 34.7779 39.7926L41.7979 32.2326C41.8709 32.1597 41.9184 32.0652 41.9335 31.9631C41.9486 31.861 41.9303 31.7568 41.8815 31.6659C41.8327 31.575 41.7559 31.5022 41.6625 31.4584C41.5691 31.4146 41.464 31.402 41.3629 31.4226L41.363 31.423ZM5.6179 37.4379H27.683C27.7858 37.9653 27.9437 38.4768 28.133 38.9679H7.52278C6.56744 38.9679 5.83064 38.321 5.61776 37.4379H5.6179Z" fill="#353241"/>
</svg>
