<svg width="48" height="48" viewBox="0 0 48 48" fill="none" xmlns="http://www.w3.org/2000/svg">
<rect x="32.6731" y="4.27383" width="5.17974" height="9.9225" rx="2.58987" transform="rotate(49.6048 32.6731 4.27383)" fill="#B3FEE3"/>
<rect x="12" y="7.66263" width="5.17974" height="9.9225" rx="2.58987" transform="rotate(-45 12 7.66263)" fill="#FFF3BC"/>
<rect x="22" y="2" width="4" height="9" rx="2" fill="#E6DFFF"/>
<path d="M24 2.9328C23.8091 2.9328 23.6259 3.00866 23.4909 3.14368C23.3559 3.27871 23.28 3.46184 23.28 3.6528V9.12C23.28 9.31096 23.3559 9.49409 23.4909 9.62912C23.6259 9.76414 23.8091 9.84 24 9.84C24.191 9.84 24.3741 9.76414 24.5091 9.62912C24.6442 9.49409 24.72 9.31096 24.72 9.12V3.6528C24.72 3.46184 24.6442 3.27871 24.5091 3.14368C24.3741 3.00866 24.191 2.9328 24 2.9328Z" fill="#353241"/>
<path d="M18.7776 11.4672C18.9107 11.5828 19.0814 11.6459 19.2576 11.6448C19.4037 11.645 19.5463 11.6008 19.6666 11.5181C19.787 11.4353 19.8793 11.318 19.9314 11.1815C19.9834 11.0451 19.9928 10.8961 19.9582 10.7542C19.9236 10.6123 19.8467 10.4843 19.7376 10.3872L16.3776 7.4208C16.2338 7.2935 16.0452 7.22855 15.8535 7.24025C15.6618 7.25196 15.4825 7.33935 15.3552 7.4832C15.2279 7.62705 15.163 7.81559 15.1747 8.00732C15.1864 8.19906 15.2738 8.37829 15.4176 8.5056L18.7776 11.4672Z" fill="#353241"/>
<path d="M28.7472 11.6448C28.9239 11.6482 29.0953 11.5848 29.2272 11.4672L32.6112 8.5056C32.7551 8.3783 32.8425 8.19906 32.8542 8.00732C32.8659 7.81559 32.8009 7.62705 32.6736 7.4832C32.5463 7.33935 32.3671 7.25196 32.1754 7.24025C31.9836 7.22855 31.7951 7.2935 31.6512 7.4208L28.2912 10.3872C28.1822 10.4843 28.1053 10.6123 28.0707 10.7542C28.0361 10.8961 28.0454 11.0451 28.0975 11.1815C28.1496 11.318 28.2419 11.4353 28.3622 11.5181C28.4826 11.6008 28.6252 11.645 28.7712 11.6448H28.7472Z" fill="#353241"/>
<path d="M45.6 24.384C44.2464 23.376 42.6624 24.2928 42.0048 24.9264L39.2544 27.6912L40.4928 16.32C40.5888 15.4992 40.344 13.8768 38.7408 13.6416C38.3427 13.5754 37.9343 13.6135 37.5552 13.752C37.3686 13.4114 37.089 13.1309 36.7491 12.9431C36.4092 12.7553 36.0229 12.6679 35.6352 12.6912C34.1568 12.7488 33.6384 14.0976 33.5376 15.0144C33.3779 15.0005 33.2173 15.0005 33.0576 15.0144C31.5744 15.1584 31.0896 16.776 31.0368 17.6784L30.9216 18.8448C30.8289 18.8401 30.736 18.8401 30.6432 18.8448C29.3904 18.96 28.8816 20.1744 28.776 20.9184C28.5552 21.6528 26.5392 28.5984 26.4288 31.4544C26.1744 38.1216 29.064 40.7136 29.184 40.8C29.3184 40.9127 29.4886 40.974 29.664 40.9728C29.81 40.973 29.9527 40.9288 30.073 40.8461C30.1933 40.7633 30.2857 40.646 30.3377 40.5095C30.3898 40.3731 30.3992 40.2241 30.3646 40.0822C30.33 39.9403 30.2531 39.8123 30.144 39.7152C30.12 39.7152 27.6528 37.4064 27.8784 31.5168C27.9888 28.7184 30.1632 21.3504 30.1824 21.2784C30.1867 21.2417 30.1867 21.2047 30.1824 21.168C30.1824 21.168 30.3168 20.328 30.7632 20.28L30.192 26.112C30.1816 26.2195 30.1964 26.328 30.2352 26.4288C30.2329 26.4624 30.2329 26.496 30.2352 26.5296C30.2897 26.7097 30.4129 26.8611 30.5783 26.9509C30.7436 27.0408 30.9377 27.0618 31.1184 27.0096C32.5646 26.6867 34.0757 26.8261 35.4384 27.408C35.5342 27.454 35.6394 27.477 35.7456 27.4752C35.8813 27.4762 36.0145 27.4383 36.1293 27.366C36.2441 27.2937 36.3359 27.19 36.3936 27.0672C36.4445 26.9627 36.4693 26.8474 36.466 26.7312C36.4627 26.615 36.4312 26.5014 36.3744 26.4L37.488 16.32V16.2672C37.5017 15.8736 37.6548 15.4976 37.92 15.2064C38.0086 15.1396 38.1114 15.094 38.2205 15.0732C38.3295 15.0524 38.4418 15.0569 38.5488 15.0864C39.168 15.1776 39.0912 16.08 39.0816 16.1808L37.656 29.0256C36.384 29.2656 33.48 30.1488 32.7024 33.3024C32.6795 33.3941 32.6751 33.4895 32.6893 33.583C32.7035 33.6764 32.7361 33.7662 32.7852 33.8469C32.8343 33.9277 32.8989 33.998 32.9753 34.0536C33.0517 34.1093 33.1385 34.1493 33.2304 34.1712C33.2878 34.1783 33.3458 34.1783 33.4032 34.1712C33.558 34.1683 33.7076 34.1152 33.8296 34.02C33.9517 33.9248 34.0395 33.7926 34.08 33.6432C34.8096 30.6864 38.2032 30.3888 38.3472 30.3744H38.4H38.448C38.5115 30.3623 38.5729 30.3413 38.6304 30.312C38.6882 30.2791 38.7415 30.2387 38.7888 30.192L42.9792 25.9776C42.9792 25.9776 43.9968 25.0176 44.7072 25.5648C45.3312 26.0448 45 26.9184 44.9136 27.12C43.0967 29.8247 41.5851 32.7224 40.4064 35.76C40.0704 36.6096 39.3888 39.144 39.36 39.2544C39.3346 39.3455 39.3275 39.4407 39.3391 39.5346C39.3507 39.6284 39.3808 39.719 39.4277 39.8012C39.4746 39.8833 39.5373 39.9553 39.6122 40.0131C39.6871 40.0708 39.7727 40.1131 39.864 40.1376C39.9262 40.1446 39.989 40.1446 40.0512 40.1376C40.2181 40.1511 40.3844 40.1057 40.5213 40.0092C40.6581 39.9128 40.7567 39.7713 40.8 39.6096C40.8 39.6096 41.496 37.0416 41.7984 36.2496C42.944 33.3 44.4121 30.4861 46.176 27.8592C46.1985 27.8267 46.2194 27.793 46.2384 27.7584C46.584 27.0384 46.9296 25.3776 45.6 24.384ZM34.968 15.36C34.968 15.312 35.0016 14.1744 35.7072 14.1408C35.8833 14.1443 36.0528 14.2082 36.1874 14.3218C36.322 14.4354 36.4134 14.5918 36.4464 14.7648C36.219 15.196 36.0849 15.6703 36.0528 16.1568L34.992 25.7568C34.5872 25.6422 34.1751 25.5556 33.7584 25.4976L34.9632 15.4512C34.9686 15.4211 34.9702 15.3905 34.968 15.36ZM33.1968 16.464H33.3936L32.3184 25.4112C32.1168 25.4112 31.9104 25.4352 31.704 25.4592L32.4768 17.8032C32.4768 17.8032 32.5968 16.5216 33.1968 16.464Z" fill="#353241"/>
<path d="M19.2 20.9424C19.0944 20.1984 18.5856 18.984 17.3328 18.8688C17.24 18.8641 17.1471 18.8641 17.0544 18.8688L16.9392 17.7312C16.8864 16.8 16.4016 15.1824 14.9184 15.0384C14.7587 15.0245 14.5981 15.0245 14.4384 15.0384C14.3376 14.1216 13.8192 12.7728 12.3456 12.7152C11.958 12.6892 11.5712 12.7748 11.2309 12.962C10.8906 13.1491 10.6111 13.43 10.4256 13.7712C10.0476 13.6349 9.64088 13.5985 9.24476 13.6656C7.67996 13.92 7.41116 15.5184 7.50716 16.32L8.74555 27.6768L5.98556 24.9024C5.33276 24.2928 3.74876 23.376 2.39996 24.384C1.05116 25.392 1.43996 27.0384 1.78076 27.7776C1.7998 27.8123 1.82063 27.8459 1.84316 27.8784C3.61373 30.5045 5.0883 33.3184 6.23996 36.2688C6.54236 37.0416 7.22875 39.5856 7.23836 39.6288C7.27882 39.7822 7.36917 39.9179 7.49517 40.0143C7.62117 40.1108 7.77567 40.1626 7.93436 40.1616C7.99657 40.1683 8.05934 40.1683 8.12156 40.1616C8.21291 40.1372 8.29851 40.0948 8.37341 40.0371C8.4483 39.9794 8.511 39.9073 8.55787 39.8252C8.60474 39.743 8.63486 39.6524 8.64648 39.5586C8.65809 39.4647 8.65098 39.3695 8.62556 39.2784C8.59676 39.168 7.91516 36.6336 7.57916 35.784C6.40143 32.7459 4.88976 29.8482 3.07196 27.144C2.98556 26.9328 2.65916 26.0544 3.28316 25.5888C3.98876 25.0608 4.99196 25.992 4.99196 25.992L9.19675 30.216H9.22075C9.26325 30.2595 9.31174 30.2966 9.36476 30.3264H9.38875C9.44291 30.3506 9.49914 30.3699 9.55676 30.384H9.60956H9.65276C9.79676 30.384 13.1904 30.696 13.92 33.6528C13.9577 33.8089 14.0469 33.9478 14.1731 34.047C14.2994 34.1463 14.4554 34.2002 14.616 34.2C14.6733 34.2071 14.7314 34.2071 14.7888 34.2C14.8807 34.1781 14.9674 34.1381 15.0438 34.0825C15.1203 34.0268 15.1849 33.9566 15.234 33.8758C15.2831 33.795 15.3157 33.7052 15.3299 33.6118C15.3441 33.5183 15.3396 33.4229 15.3168 33.3312C14.52 30.1488 11.616 29.28 10.344 29.0256L8.93756 16.1808C8.93756 16.08 8.85115 15.1776 9.47036 15.0864C9.57654 15.0566 9.68821 15.0519 9.79652 15.0727C9.90483 15.0936 10.0068 15.1393 10.0944 15.2064C10.3495 15.4932 10.4971 15.8597 10.512 16.2432V16.32L11.6256 26.4C11.5559 26.5037 11.5144 26.6237 11.5051 26.7482C11.4959 26.8728 11.5192 26.9976 11.5728 27.1104C11.6567 27.2812 11.8041 27.4124 11.9834 27.4761C12.1628 27.5398 12.3599 27.5308 12.5328 27.4512C13.8939 26.8629 15.407 26.7233 16.8528 27.0528C17.0335 27.1051 17.2276 27.084 17.3929 26.9941C17.5582 26.9043 17.6815 26.7529 17.736 26.5728C17.7382 26.5392 17.7382 26.5056 17.736 26.472C17.7747 26.3712 17.7895 26.2627 17.7792 26.1552L17.2176 20.2992C17.6688 20.3472 17.7984 21.1776 17.7984 21.1824C17.8057 21.2213 17.8153 21.2598 17.8272 21.2976C17.8272 21.3696 20.0208 28.7376 20.1312 31.536C20.3568 37.4256 17.8896 39.696 17.8704 39.7296C17.7987 39.7916 17.7399 39.8671 17.6975 39.9519C17.655 40.0366 17.6297 40.1289 17.623 40.2235C17.6164 40.318 17.6284 40.4129 17.6585 40.5028C17.6886 40.5927 17.7361 40.6757 17.7984 40.7472C17.8654 40.8254 17.9486 40.8882 18.0423 40.9313C18.1359 40.9744 18.2377 40.9967 18.3408 40.9968C18.517 40.9979 18.6877 40.9348 18.8208 40.8192C18.9408 40.7136 21.8304 38.1216 21.576 31.4784C21.456 28.6032 19.44 21.6768 19.2 20.9424ZM14.784 16.464C15.312 16.512 15.4848 17.5344 15.504 17.8368L16.32 25.44C16.1136 25.44 15.9072 25.3968 15.7056 25.392L14.6064 16.464H14.784ZM12.2736 14.1456C12.9792 14.1792 13.008 15.3168 13.0128 15.36C13.0104 15.3856 13.0104 15.4113 13.0128 15.4368L14.2176 25.4832C13.8009 25.5412 13.3887 25.6278 12.984 25.7424L11.9232 16.1424C11.891 15.6559 11.7569 15.1817 11.5296 14.7504C11.5664 14.5765 11.6628 14.4209 11.8022 14.3105C11.9415 14.2001 12.115 14.1417 12.2928 14.1456H12.2736Z" fill="#353241"/>
</svg>
